<svg xmlns="http://www.w3.org/2000/svg" viewBox="100 225 300 300">
	<path d="M242.382 447.815c-13.221-.154-42.164-3.02-64.532-23.232-20.674-18.684-31.157-47.722-31.157-86.31l-9.094 2.599c0 41.316 11.517 70.05 34.231 90.528 24.856 22.41 56.032 25.477 70.551 25.557V447.815zM222.48 340.315c3.964-13.447 12.862-25.746 26.126-35.996 13.419 10.394 22.334 23.057 26.155 37.048 2.604-1.634 5.331-3.114 8.182-4.42-4.918-16.097-15.705-30.471-31.674-41.99l-2.661-1.918-2.661 1.919c-15.882 11.457-26.681 25.564-31.703 41.211C217.105 337.388 219.854 338.774 222.48 340.315zM248.604 392.102c3.428-2.779 6.505-5.719 9.269-8.787 3.375-10.516 9.242-19.548 17.312-26.359 11.003-9.285 25.598-14.125 42.055-14.125 3.682 0 7.46.242 11.309.732 2.74 21.48-2.244 40.191-14.496 54.275-12.913 14.844-32.802 23.252-56.52 24.031v9.096c26.36-.785 48.71-10.294 63.38-27.158 14.703-16.901 20.284-39.373 16.137-64.984l-.523-3.238-3.236-.523c-25.03-4.053-47.748 1.256-63.969 14.945-11.905 10.049-19.663 24.141-22.568 40.557C247.359 391.081 247.975 391.594 248.604 392.102zM353.306 338.272c0 38.589-10.482 67.627-31.157 86.31-24.309 21.97-56.381 23.446-67.601 23.221v-13.908-28.334c-.586.441-1.158.89-1.761 1.322l-4.178 3.016-3.154-2.275v26.272 16.146 6.189l4.078.424c.432.044 3.143.307 7.467.307 14.244 0 45.965-2.835 71.172-25.561 22.713-20.478 34.23-49.212 34.23-90.528L353.306 338.272zM245.947 404.776l2.661 1.92 2.661-1.92c18.486-13.334 30.034-30.492 33.554-49.727-4.717 2.813-8.9 6.277-12.459 10.338-4.599 11.211-12.623 21.402-23.757 30.027-12.416-9.595-21.011-20.984-25.311-33.432-3.3-3.129-7.02-5.822-11.118-8.039l-.27.045C215.113 373.462 226.884 391.024 245.947 404.776zM184.911 397.84c-12.253-14.085-17.235-32.796-14.497-54.277 32.247-4.114 61.11 10.704 73.177 40.898 1.123-3.679 2.325-7.486 3.501-10.983-13.009-29.385-44.444-44.398-81.417-38.416l-3.238.523-.524 3.238c-4.146 25.611 1.434 48.084 16.138 64.984 14.849 17.07 37.559 26.603 64.255 27.184v-9.094C218.239 421.302 197.996 412.88 184.911 397.84z" fill="#532755"/>
</svg>
